<svg width="256" height="256" viewBox="0 0 512 512" fill="none" xmlns="http://www.w3.org/2000/svg">
  <!-- Rounded Green Background -->
  <rect width="512" height="512" rx="100" fill="#25D366"/>

  <!-- White Chat Bubble Outline -->
  <path d="M256.064 89.2148C163.665 89.2148 88.75 164.129 88.75 256.529C88.75 291.139 99.2561 323.238 117.202 349.923L88.75 422.785L164.382 399.789C190.584 415.011 221.364 423.843 256.064 423.843C348.463 423.843 423.378 348.928 423.378 256.529C423.378 164.129 348.463 89.2148 256.064 89.2148ZM256.064 116.89C333.155 116.89 395.703 179.438 395.703 256.529C395.703 333.62 333.155 396.167 256.064 396.167C228.694 396.167 203.226 388.291 181.764 374.743L129.567 390.627L149.208 340.231C132.88 316.598 123.325 287.728 123.325 256.529C123.325 179.438 185.872 116.89 256.064 116.89Z" fill="white"/>

  <!-- Central "B" -->
  <path d="M195.5 168.5H258.5C286.39 168.5 309 191.11 309 219V219.5C309 238.16 298.83 254.44 283.82 263.15C301.81 270.83 314.5 288.68 314.5 309.5V310.5C314.5 338.39 291.89 361 264 361H195.5V168.5ZM240.5 248H258C273.74 248 286.5 235.24 286.5 219.5V219C286.5 203.26 273.74 190.5 258 190.5H240.5V248ZM240.5 339H263C278.74 339 291.5 326.24 291.5 310.5V309.5C291.5 293.76 278.74 281 263 281H240.5V339Z" fill="white"/>
</svg>
